{
    "asset" : {
        "generator" : "Khronos glTF Blender I/O v1.7.33",
        "version" : "2.0"
    },
    "scene" : 0,
    "scenes" : [
        {
            "name" : "Scene",
            "nodes" : [
                0,
                1,
                2,
                3,
                4,
                5,
                6
            ]
        }
    ],
    "nodes" : [
        {
            "mesh" : 0,
            "name" : "Cylinder",
            "rotation" : [
                0.1543741524219513,
                -0.15825721621513367,
                -0.05897439643740654,
                0.9734707474708557
            ],
            "scale" : [
                0.6772046685218811,
                0.6772046685218811,
                0.6772046685218811
            ],
            "translation" : [
                0.4053441286087036,
                -0.6689339876174927,
                1.9608614444732666
            ]
        },
        {
            "mesh" : 1,
            "name" : "Cylinder.002",
            "rotation" : [
                0.1543741524219513,
                -0.15825721621513367,
                -0.05897439643740654,
                0.9734707474708557
            ],
            "scale" : [
                0.6772046685218811,
                1.3275154829025269,
                0.6772046685218811
            ],
            "translation" : [
                0.76053786277771,
                1.6746714115142822,
                1.39115571975708
            ]
        },
        {
            "mesh" : 2,
            "name" : "Cylinder.001",
            "rotation" : [
                0.1543741524219513,
                -0.15825721621513367,
                -0.05897439643740654,
                0.9734707474708557
            ],
            "scale" : [
                0.6772046685218811,
                0.6772046685218811,
                0.6772046685218811
            ],
            "translation" : [
                0.4053441286087036,
                -0.6689339876174927,
                1.9608614444732666
            ]
        },
        {
            "mesh" : 3,
            "name" : "Cube.001",
            "rotation" : [
                0.1409503072500229,
                -0.11803936958312988,
                -0.04213324934244156,
                0.9820511937141418
            ],
            "scale" : [
                2.811572790145874,
                0.08652115613222122,
                2.8115732669830322
            ],
            "translation" : [
                0.3385346829891205,
                -1.4974840879440308,
                1.6577157974243164
            ]
        },
        {
            "mesh" : 4,
            "name" : "Cube.003",
            "rotation" : [
                0.26896148920059204,
                0.3246019780635834,
                0.1366814821958542,
                0.8964439034461975
            ],
            "scale" : [
                0.4559812545776367,
                0.23130455613136292,
                0.5797278881072998
            ],
            "translation" : [
                -0.8132113218307495,
                -1.6484251022338867,
                3.390514373779297
            ]
        },
        {
            "mesh" : 5,
            "name" : "Cube.004",
            "rotation" : [
                0.2805919945240021,
                0.613105058670044,
                0.07963084429502487,
                0.7341861128807068
            ],
            "scale" : [
                0.4009231925010681,
                0.2033754289150238,
                0.5097278952598572
            ],
            "translation" : [
                -0.10385800153017044,
                -1.804995059967041,
                3.7322449684143066
            ]
        },
        {
            "mesh" : 6,
            "name" : "Cube.005",
            "rotation" : [
                0.33365923166275024,
                0.008400054648518562,
                -0.08240236341953278,
                0.9390478134155273
            ],
            "scale" : [
                0.4606727957725525,
                0.23368452489376068,
                0.585692822933197
            ],
            "translation" : [
                -0.8646722435951233,
                -1.380526065826416,
                2.5952236652374268
            ]
        }
    ],
    "materials" : [
        {
            "doubleSided" : true,
            "name" : "Material.003",
            "pbrMetallicRoughness" : {
                "baseColorFactor" : [
                    0.41092532873153687,
                    0.11900565028190613,
                    0.017244327813386917,
                    1
                ],
                "metallicFactor" : 0,
                "roughnessFactor" : 0.5
            }
        },
        {
            "doubleSided" : true,
            "name" : "Material.006",
            "pbrMetallicRoughness" : {
                "baseColorFactor" : [
                    0.8000000715255737,
                    0.48327335715293884,
                    0.11541363596916199,
                    1
                ],
                "metallicFactor" : 0,
                "roughnessFactor" : 0.5
            }
        },
        {
            "doubleSided" : true,
            "name" : "Material.002",
            "pbrMetallicRoughness" : {
                "baseColorFactor" : [
                    0.0036409529857337475,
                    0.0026698464062064886,
                    0.0015522612957283854,
                    1
                ],
                "metallicFactor" : 0,
                "roughnessFactor" : 0.5
            }
        },
        {
            "doubleSided" : true,
            "name" : "Material.007",
            "pbrMetallicRoughness" : {
                "metallicFactor" : 0.2850678563117981,
                "roughnessFactor" : 0.37782806158065796
            }
        },
        {
            "doubleSided" : true,
            "name" : "Material.001",
            "pbrMetallicRoughness" : {
                "baseColorFactor" : [
                    0.04445478320121765,
                    0.017180822789669037,
                    0.012470055371522903,
                    1
                ],
                "metallicFactor" : 0,
                "roughnessFactor" : 0.49481865763664246
            }
        }
    ],
    "meshes" : [
        {
            "name" : "Cylinder",
            "primitives" : [
                {
                    "attributes" : {
                        "POSITION" : 0,
                        "NORMAL" : 1,
                        "TEXCOORD_0" : 2
                    },
                    "indices" : 3,
                    "material" : 0
                }
            ]
        },
        {
            "name" : "Cylinder.002",
            "primitives" : [
                {
                    "attributes" : {
                        "POSITION" : 4,
                        "NORMAL" : 5,
                        "TEXCOORD_0" : 6
                    },
                    "indices" : 7,
                    "material" : 1
                }
            ]
        },
        {
            "name" : "Cylinder.004",
            "primitives" : [
                {
                    "attributes" : {
                        "POSITION" : 8,
                        "NORMAL" : 9,
                        "TEXCOORD_0" : 10
                    },
                    "indices" : 11,
                    "material" : 2
                }
            ]
        },
        {
            "name" : "Cube.001",
            "primitives" : [
                {
                    "attributes" : {
                        "POSITION" : 12,
                        "NORMAL" : 13,
                        "TEXCOORD_0" : 14
                    },
                    "indices" : 15,
                    "material" : 3
                }
            ]
        },
        {
            "name" : "Cube.003",
            "primitives" : [
                {
                    "attributes" : {
                        "POSITION" : 16,
                        "NORMAL" : 17,
                        "TEXCOORD_0" : 18
                    },
                    "indices" : 19,
                    "material" : 4
                }
            ]
        },
        {
            "name" : "Cube.004",
            "primitives" : [
                {
                    "attributes" : {
                        "POSITION" : 20,
                        "NORMAL" : 21,
                        "TEXCOORD_0" : 22
                    },
                    "indices" : 19,
                    "material" : 4
                }
            ]
        },
        {
            "name" : "Cube.005",
            "primitives" : [
                {
                    "attributes" : {
                        "POSITION" : 23,
                        "NORMAL" : 24,
                        "TEXCOORD_0" : 25
                    },
                    "indices" : 19,
                    "material" : 4
                }
            ]
        }
    ],
    "accessors" : [
        {
            "bufferView" : 0,
            "componentType" : 5126,
            "count" : 15661,
            "max" : [
                1.773722529411316,
                3.357085943222046,
                1.773722529411316
            ],
            "min" : [
                -1.773722529411316,
                -1.7865606546401978,
                -1.7737232446670532
            ],
            "type" : "VEC3"
        },
        {
            "bufferView" : 1,
            "componentType" : 5126,
            "count" : 15661,
            "type" : "VEC3"
        },
        {
            "bufferView" : 2,
            "componentType" : 5126,
            "count" : 15661,
            "type" : "VEC2"
        },
        {
            "bufferView" : 3,
            "componentType" : 5123,
            "count" : 77952,
            "type" : "SCALAR"
        },
        {
            "bufferView" : 4,
            "componentType" : 5126,
            "count" : 12720,
            "max" : [
                2.102609157562256,
                -0.20563361048698425,
                3.6925692558288574
            ],
            "min" : [
                -1.471082329750061,
                -2.011385917663574,
                0.11887843161821365
            ],
            "type" : "VEC3"
        },
        {
            "bufferView" : 5,
            "componentType" : 5126,
            "count" : 12720,
            "type" : "VEC3"
        },
        {
            "bufferView" : 6,
            "componentType" : 5126,
            "count" : 12720,
            "type" : "VEC2"
        },
        {
            "bufferView" : 7,
            "componentType" : 5123,
            "count" : 66816,
            "type" : "SCALAR"
        },
        {
            "bufferView" : 8,
            "componentType" : 5126,
            "count" : 21468,
            "max" : [
                2.0246047973632812,
                4.193668365478516,
                2.034726858139038
            ],
            "min" : [
                -2.011931896209717,
                3.1572365760803223,
                -2.0117011070251465
            ],
            "type" : "VEC3"
        },
        {
            "bufferView" : 9,
            "componentType" : 5126,
            "count" : 21468,
            "type" : "VEC3"
        },
        {
            "bufferView" : 10,
            "componentType" : 5126,
            "count" : 21468,
            "type" : "VEC2"
        },
        {
            "bufferView" : 11,
            "componentType" : 5123,
            "count" : 118524,
            "type" : "SCALAR"
        },
        {
            "bufferView" : 12,
            "componentType" : 5126,
            "count" : 10237,
            "max" : [
                0.9060724973678589,
                1.926681399345398,
                0.9069480299949646
            ],
            "min" : [
                -0.9174835681915283,
                -5.860282897949219,
                -0.9155483841896057
            ],
            "type" : "VEC3"
        },
        {
            "bufferView" : 13,
            "componentType" : 5126,
            "count" : 10237,
            "type" : "VEC3"
        },
        {
            "bufferView" : 14,
            "componentType" : 5126,
            "count" : 10237,
            "type" : "VEC2"
        },
        {
            "bufferView" : 15,
            "componentType" : 5123,
            "count" : 58368,
            "type" : "SCALAR"
        },
        {
            "bufferView" : 16,
            "componentType" : 5126,
            "count" : 2348,
            "max" : [
                0.8028417229652405,
                0.7683737874031067,
                0.8021150231361389
            ],
            "min" : [
                -0.8032348155975342,
                -1.1729906797409058,
                -0.8021823167800903
            ],
            "type" : "VEC3"
        },
        {
            "bufferView" : 17,
            "componentType" : 5126,
            "count" : 2348,
            "type" : "VEC3"
        },
        {
            "bufferView" : 18,
            "componentType" : 5126,
            "count" : 2348,
            "type" : "VEC2"
        },
        {
            "bufferView" : 19,
            "componentType" : 5123,
            "count" : 11568,
            "type" : "SCALAR"
        },
        {
            "bufferView" : 20,
            "componentType" : 5126,
            "count" : 2348,
            "max" : [
                0.8028417229652405,
                0.7683737874031067,
                0.8021150231361389
            ],
            "min" : [
                -0.8032348155975342,
                -1.1729906797409058,
                -0.8021823167800903
            ],
            "type" : "VEC3"
        },
        {
            "bufferView" : 21,
            "componentType" : 5126,
            "count" : 2348,
            "type" : "VEC3"
        },
        {
            "bufferView" : 22,
            "componentType" : 5126,
            "count" : 2348,
            "type" : "VEC2"
        },
        {
            "bufferView" : 23,
            "componentType" : 5126,
            "count" : 2348,
            "max" : [
                0.8028417229652405,
                0.7683737874031067,
                0.8021150231361389
            ],
            "min" : [
                -0.8032348155975342,
                -1.1729906797409058,
                -0.8021823167800903
            ],
            "type" : "VEC3"
        },
        {
            "bufferView" : 24,
            "componentType" : 5126,
            "count" : 2348,
            "type" : "VEC3"
        },
        {
            "bufferView" : 25,
            "componentType" : 5126,
            "count" : 2348,
            "type" : "VEC2"
        }
    ],
    "bufferViews" : [
        {
            "buffer" : 0,
            "byteLength" : 187932,
            "byteOffset" : 0
        },
        {
            "buffer" : 0,
            "byteLength" : 187932,
            "byteOffset" : 187932
        },
        {
            "buffer" : 0,
            "byteLength" : 125288,
            "byteOffset" : 375864
        },
        {
            "buffer" : 0,
            "byteLength" : 155904,
            "byteOffset" : 501152
        },
        {
            "buffer" : 0,
            "byteLength" : 152640,
            "byteOffset" : 657056
        },
        {
            "buffer" : 0,
            "byteLength" : 152640,
            "byteOffset" : 809696
        },
        {
            "buffer" : 0,
            "byteLength" : 101760,
            "byteOffset" : 962336
        },
        {
            "buffer" : 0,
            "byteLength" : 133632,
            "byteOffset" : 1064096
        },
        {
            "buffer" : 0,
            "byteLength" : 257616,
            "byteOffset" : 1197728
        },
        {
            "buffer" : 0,
            "byteLength" : 257616,
            "byteOffset" : 1455344
        },
        {
            "buffer" : 0,
            "byteLength" : 171744,
            "byteOffset" : 1712960
        },
        {
            "buffer" : 0,
            "byteLength" : 237048,
            "byteOffset" : 1884704
        },
        {
            "buffer" : 0,
            "byteLength" : 122844,
            "byteOffset" : 2121752
        },
        {
            "buffer" : 0,
            "byteLength" : 122844,
            "byteOffset" : 2244596
        },
        {
            "buffer" : 0,
            "byteLength" : 81896,
            "byteOffset" : 2367440
        },
        {
            "buffer" : 0,
            "byteLength" : 116736,
            "byteOffset" : 2449336
        },
        {
            "buffer" : 0,
            "byteLength" : 28176,
            "byteOffset" : 2566072
        },
        {
            "buffer" : 0,
            "byteLength" : 28176,
            "byteOffset" : 2594248
        },
        {
            "buffer" : 0,
            "byteLength" : 18784,
            "byteOffset" : 2622424
        },
        {
            "buffer" : 0,
            "byteLength" : 23136,
            "byteOffset" : 2641208
        },
        {
            "buffer" : 0,
            "byteLength" : 28176,
            "byteOffset" : 2664344
        },
        {
            "buffer" : 0,
            "byteLength" : 28176,
            "byteOffset" : 2692520
        },
        {
            "buffer" : 0,
            "byteLength" : 18784,
            "byteOffset" : 2720696
        },
        {
            "buffer" : 0,
            "byteLength" : 28176,
            "byteOffset" : 2739480
        },
        {
            "buffer" : 0,
            "byteLength" : 28176,
            "byteOffset" : 2767656
        },
        {
            "buffer" : 0,
            "byteLength" : 18784,
            "byteOffset" : 2795832
        }
    ],
    "buffers" : [
        {
            "byteLength" : 2814616,
            "uri" : "data:application/octet-stream;base64,"
        }
    ]
}
